<svg width="250" height="77" fill="none" xmlns="http://www.w3.org/2000/svg"><path d="m36.26 23.324-3.664 7.855a1.782 1.782 0 0 0 1.587 2.487h29.761a1.782 1.782 0 0 1 1.578 2.479L53.04 62.892a1.783 1.783 0 0 1-1.578 1.008H19.543a3.477 3.477 0 0 0-3.156 2.015l-3.646 7.881a1.783 1.783 0 0 0 1.578 2.479h43.92a3.47 3.47 0 0 0 3.155-2.006l22.37-47.967a3.486 3.486 0 0 0-3.165-4.966H39.408a3.495 3.495 0 0 0-3.147 1.988Z" fill="#fff"/><path d="M49.92 42.591H20.15a1.784 1.784 0 0 1-1.578-2.479l12.482-26.747a1.784 1.784 0 0 1 1.578-1.008h31.91a3.477 3.477 0 0 0 3.156-2.015l3.664-7.863A1.783 1.783 0 0 0 69.784 0H25.856A3.468 3.468 0 0 0 22.7 2.006L.33 49.973a3.486 3.486 0 0 0 3.165 4.966h41.182a3.476 3.476 0 0 0 3.156-2.015l3.665-7.863a1.784 1.784 0 0 0-1.578-2.47Zm53.753-11.439a.896.896 0 0 1 .811.236.898.898 0 0 1 .25.807c0 .892-1.034 1.908-3.085 3.165a11.454 11.454 0 0 1-5.964 1.881 7.435 7.435 0 0 1-4.69-1.667 5.768 5.768 0 0 1-2.14-4.85 14.925 14.925 0 0 1 2.238-7.204 20.765 20.765 0 0 1 5.546-6.455 10.796 10.796 0 0 1 6.455-2.488 4.048 4.048 0 0 1 2.995 1.124 3.556 3.556 0 0 1 1.124 2.612 7.49 7.49 0 0 1-.259 2.327 2.396 2.396 0 0 1-1.078 1.213 2.74 2.74 0 0 1-1.338.508 1.317 1.317 0 0 1-1.195-.85 1.34 1.34 0 0 1-.089-.55c.025-.442.106-.88.241-1.302.134-.464.209-.943.223-1.426 0-.642-.214-.972-.66-.972-1.337 0-2.841.72-4.511 2.158a19.3 19.3 0 0 0-4.289 5.35 11.867 11.867 0 0 0-1.783 5.643c-.03.998.303 1.974.936 2.746a3.351 3.351 0 0 0 2.737 1.114 8.326 8.326 0 0 0 2.675-.57 12.187 12.187 0 0 0 2.987-1.551 4.54 4.54 0 0 1 1.863-1Zm10.458-18.822c1.008 0 1.516.544 1.516 1.65a6.834 6.834 0 0 1-.214 1.623 172.04 172.04 0 0 1-1.15 4.333 37.446 37.446 0 0 0-1.034 5.465 40.55 40.55 0 0 0-.357 4.619 39.53 39.53 0 0 0 .259 4.226c.038.275.061.551.071.829a1.93 1.93 0 0 1-.615 1.435 1.887 1.887 0 0 1-1.337.607 1.415 1.415 0 0 1-1.4-.936 8.8 8.8 0 0 1-.41-3.22 68.428 68.428 0 0 1 1.159-11.59c.766-4.44 1.393-7.058 1.881-7.855.487-.796 1.031-1.191 1.631-1.185Zm4.022 14.39c.294-1.702.445-2.674.445-2.915a3.107 3.107 0 0 1 .455-1.73 1.421 1.421 0 0 1 1.266-.704 2.21 2.21 0 0 1 1.48.455 1.298 1.298 0 0 1 .535.998 10.938 10.938 0 0 1-.517 2.31l-.089.312a25.137 25.137 0 0 0-.892 4.404c-.107 1.141-.16 2.06-.16 2.755.024.769.123 1.533.294 2.283.025.138.04.278.045.419 0 .214-.205.508-.607.891-.351.343-.819.54-1.31.553-1.231 0-1.846-.936-1.846-2.8.04-1.948.264-3.888.669-5.795.071-.508.151-.99.232-1.435Zm6.749-11.5a2.226 2.226 0 0 1-.892 1.783 2.61 2.61 0 0 1-1.551.748 1.948 1.948 0 0 1-1.489-.704 2.054 2.054 0 0 1-.651-1.4 2.191 2.191 0 0 1 .642-1.632 2.57 2.57 0 0 1 1.846-.614 2.076 2.076 0 0 1 1.515.552 1.718 1.718 0 0 1 .58 1.266Zm12.232 18.75a13.628 13.628 0 0 1-.98-4.7c-.205-2.389-.66-3.566-1.373-3.566-.714 0-1.828 1.24-3.487 3.727a26.61 26.61 0 0 0-3.049 5.51 1.834 1.834 0 0 1-.463.892.974.974 0 0 1-.678.356c-1.418 0-2.131-.65-2.131-1.943a23.42 23.42 0 0 1 .419-2.996 42.15 42.15 0 0 0 .544-7.391c.034-.518.237-1.01.58-1.4a1.573 1.573 0 0 1 1.212-.749c.452-.03.898.114 1.248.401.384.65.538 1.41.437 2.158a31.162 31.162 0 0 1-.802 5.144c2.021-4.755 4.279-7.132 6.776-7.132 2.157 0 3.424 1.703 3.798 5.109.374 3.405.805 5.14 1.293 5.206.252-.01.502-.058.74-.142.253-.1.521-.156.793-.17.446 0 .678.259.678.785a2.186 2.186 0 0 1-.892 1.515 3.413 3.413 0 0 1-2.318.803 2.387 2.387 0 0 1-2.327-1.409l-.018-.009Zm12.893-9.318a16.368 16.368 0 0 0-.785 3.12 28.69 28.69 0 0 0-.669 3.772 3.578 3.578 0 0 0 .25 1.605.838.838 0 0 0 .802.455 4.052 4.052 0 0 0 1.498-.277 7.579 7.579 0 0 0 1.899-1.221 2.089 2.089 0 0 1 1.231-.597.895.895 0 0 1 .651.231.72.72 0 0 1 .249.535c0 .82-.668 1.784-1.988 2.791a6.696 6.696 0 0 1-4.199 1.56 3.568 3.568 0 0 1-2.818-1.087 4.57 4.57 0 0 1-.972-3.139 40.04 40.04 0 0 1 1.409-7.543c-.411.055-.825.088-1.239.098h-.294a2.416 2.416 0 0 1-1.311-.419 1.444 1.444 0 0 1-.66-1.337c0-.785.437-1.177 1.329-1.177l2.987-.116c.392-1.123.808-2.61 1.248-4.458.258-1.14.891-1.703 1.783-1.703a1.545 1.545 0 0 1 1.204.464c.278.276.435.651.436 1.043 0 .152-.401 1.587-1.194 4.324 2.969-.258 4.6-.392 4.886-.392.341-.038.686.037.98.214a1.117 1.117 0 0 1 .241.838c0 .832-.704 1.358-2.113 1.578l-4.841.838Zm20.889 4.262a11.127 11.127 0 0 1-3.566 5.519 8.102 8.102 0 0 1-5.242 2.247 4.382 4.382 0 0 1-3.415-1.516 5.435 5.435 0 0 1-1.346-3.727 12.238 12.238 0 0 1 2.469-7.132c1.641-2.336 3.629-3.495 5.974-3.495a4.824 4.824 0 0 1 3.869 1.783 6.344 6.344 0 0 1 1.489 4.217 8.992 8.992 0 0 1-.241 2.086l.009.018Zm-7.275-4.458a8.93 8.93 0 0 0-1.917 2.764 8.608 8.608 0 0 0-.936 3.825 3.89 3.89 0 0 0 .428 1.917 1.276 1.276 0 0 0 1.123.749c1.189 0 2.393-.684 3.611-2.05a6.704 6.704 0 0 0 1.873-4.62 4.297 4.297 0 0 0-.607-2.37 1.914 1.914 0 0 0-1.703-.892 2.718 2.718 0 0 0-1.854.713l-.018-.036Zm21.987 9.514a13.85 13.85 0 0 1-.981-4.7c-.205-2.389-.66-3.566-1.373-3.566s-1.828 1.24-3.486 3.727a26.584 26.584 0 0 0-3.076 5.492 1.836 1.836 0 0 1-.464.892.952.952 0 0 1-.677.357c-1.418 0-2.131-.651-2.131-1.944.074-1.007.214-2.007.419-2.996.401-2.443.586-4.916.553-7.391a2.33 2.33 0 0 1 .57-1.4 1.573 1.573 0 0 1 1.213-.749c.452-.03.898.114 1.248.401.384.65.538 1.41.437 2.158a31.165 31.165 0 0 1-.803 5.144c2.027-4.755 4.286-7.132 6.776-7.132 2.158 0 3.433 1.703 3.799 5.109.365 3.405.802 5.206 1.292 5.206a2.49 2.49 0 0 0 .74-.142c.254-.098.522-.155.794-.17.455 0 .678.259.678.785a2.201 2.201 0 0 1-.892 1.516 3.416 3.416 0 0 1-2.318.802 2.392 2.392 0 0 1-2.327-1.409l.009.01ZM103.45 46.62a2.375 2.375 0 0 0-.757-2.032 3.57 3.57 0 0 0-2.22-.57 9.13 9.13 0 0 0-4.637 1.22c-1.426.812-2.14 1.704-2.14 2.676A1.98 1.98 0 0 0 94.5 49.5a14.526 14.526 0 0 0 4.172 1.64 17.888 17.888 0 0 1 5.234 2.238 3.574 3.574 0 0 1 1.703 2.942c0 1.908-1.444 3.647-4.351 5.234a18.562 18.562 0 0 1-9.04 2.371 4.19 4.19 0 0 1-2.444-.633 1.863 1.863 0 0 1-.891-1.569c-.003-.488.14-.966.41-1.373a1.194 1.194 0 0 1 .999-.642c.223 0 .444.042.65.125a7.48 7.48 0 0 0 2.898.66c1.802-.06 3.57-.501 5.19-1.293 1.913-.862 2.873-1.709 2.879-2.54 0-.34-.241-.678-.713-1a13.878 13.878 0 0 0-2.925-1.203c-2.148-.704-3.753-1.275-4.832-1.73a5.743 5.743 0 0 1-2.46-1.783 4.226 4.226 0 0 1-.839-2.675c0-1.836 1.079-3.566 3.228-5.144a12.428 12.428 0 0 1 7.578-2.39 6.842 6.842 0 0 1 3.95.999 2.76 2.76 0 0 1 1.382 2.282c0 1.73-.892 2.604-2.827 2.604Zm18.545 10.825c0 1.025-.891 2.246-2.585 3.673a8.917 8.917 0 0 1-5.849 2.14 5.069 5.069 0 0 1-3.941-1.578 6.298 6.298 0 0 1-1.435-4.387 12.159 12.159 0 0 1 2.933-7.774c1.956-2.414 4.036-3.62 6.241-3.62a3.505 3.505 0 0 1 3.673 3.566 6.739 6.739 0 0 1-2.469 4.904 13.325 13.325 0 0 1-6.339 3.218.52.52 0 0 0-.446.535 1.923 1.923 0 0 0 .633 1.355 2.249 2.249 0 0 0 1.676.642c1.991 0 3.962-1.019 5.911-3.058a1.557 1.557 0 0 1 1.097-.597c.606-.018.9.312.9.98Zm-9.932-2.622a9.075 9.075 0 0 0 4.128-1.997c1.186-1.016 1.783-1.943 1.783-2.773a1.228 1.228 0 0 0-.276-.82.892.892 0 0 0-.704-.33c-.892 0-1.784.624-2.854 1.89a9.813 9.813 0 0 0-2.077 4.03Zm17.814-17.35c1.061 0 1.596.58 1.596 1.783a7.238 7.238 0 0 1-.223 1.721c-.152.615-.553 2.149-1.213 4.583a41.39 41.39 0 0 0-1.105 5.777 44.043 44.043 0 0 0-.375 4.895c.013 1.49.106 2.978.277 4.458.053.473.08.758.08.892a2.06 2.06 0 0 1-.651 1.524 2.01 2.01 0 0 1-1.426.642 1.507 1.507 0 0 1-1.48-.99 9.515 9.515 0 0 1-.428-3.405 73.198 73.198 0 0 1 1.221-12.304c.808-4.696 1.474-7.469 1.997-8.319.517-.838 1.097-1.257 1.73-1.257Zm16.441 19.972c0 1.022-.862 2.246-2.586 3.673a8.915 8.915 0 0 1-5.849 2.14 5.069 5.069 0 0 1-3.94-1.578 6.294 6.294 0 0 1-1.436-4.387 12.164 12.164 0 0 1 2.933-7.774c1.956-2.414 4.036-3.62 6.241-3.62a3.505 3.505 0 0 1 3.674 3.566 6.743 6.743 0 0 1-2.47 4.904 13.323 13.323 0 0 1-6.294 3.2.519.519 0 0 0-.446.535 1.924 1.924 0 0 0 .633 1.356 2.249 2.249 0 0 0 1.676.642c1.991 0 3.962-1.02 5.911-3.059a1.558 1.558 0 0 1 1.097-.597c.562 0 .856.33.856.999Zm-9.933-2.622a9.079 9.079 0 0 0 4.129-1.997c1.185-1.016 1.783-1.943 1.783-2.773a1.284 1.284 0 0 0-.277-.82.892.892 0 0 0-.704-.33c-.892 0-1.783.624-2.853 1.89a9.815 9.815 0 0 0-2.078 4.03Zm26.133-4.653c-.595.308-1.058.585-1.391.829a24.28 24.28 0 0 0-1.997 1.435c-.614.452-1.192.95-1.73 1.489-.33.339-.49.588-.49.74a8.696 8.696 0 0 0 1.729 2.086 28.766 28.766 0 0 0 2.746 2.595 3.27 3.27 0 0 0 2.007.784h.65a.769.769 0 0 1 .571.214.893.893 0 0 1 .214.651 2.191 2.191 0 0 1-.758 1.4 3.44 3.44 0 0 1-2.585.803 3.791 3.791 0 0 1-2.194-.794 22.608 22.608 0 0 1-3.406-3.566 14.323 14.323 0 0 0-1.997-2.23c-.071 0-.276.17-.624.527a5.116 5.116 0 0 0-.677.82 16.454 16.454 0 0 0-.25 3.219 2.264 2.264 0 0 1-.589 1.613 1.885 1.885 0 0 1-1.426.616 1.841 1.841 0 0 1-1.364-.49 1.474 1.474 0 0 1-.491-1c.065-.79.19-1.573.375-2.344a83.735 83.735 0 0 0 1.195-9.308c.321-3.085.597-5.502.829-7.231.125-1.15.339-2.29.642-3.406a2.76 2.76 0 0 1 .891-1.284 1.972 1.972 0 0 1 1.266-.481 1.25 1.25 0 0 1 1.052.535c.266.384.404.843.393 1.31 0 .642-.416 3.15-1.248 7.525l-.357 1.935c-.44 2.853-.663 4.502-.669 4.948l4.547-4.119c2.318-2.235 4.021-3.355 5.109-3.361 1.043 0 1.569.419 1.569 1.257a2.33 2.33 0 0 1-1.542 2.282Zm17.377 7.275c0 1.022-.865 2.246-2.595 3.673a8.915 8.915 0 0 1-5.848 2.14 5.037 5.037 0 0 1-3.932-1.578 6.242 6.242 0 0 1-1.436-4.387 12.109 12.109 0 0 1 2.933-7.774c1.95-2.414 4.03-3.62 6.242-3.62a3.502 3.502 0 0 1 3.673 3.566 6.747 6.747 0 0 1-2.479 4.904 13.284 13.284 0 0 1-6.33 3.218.514.514 0 0 0-.446.535 1.936 1.936 0 0 0 .624 1.355 2.264 2.264 0 0 0 1.685.642c1.98 0 3.947-1.019 5.903-3.058a1.553 1.553 0 0 1 1.096-.597c.616-.018.91.312.91.98Zm-9.932-2.622a8.998 8.998 0 0 0 4.119-1.997c1.194-1.016 1.783-1.943 1.783-2.773a1.273 1.273 0 0 0-.268-.82.883.883 0 0 0-.704-.33c-.892 0-1.783.624-2.862 1.89a9.806 9.806 0 0 0-2.068 4.03Zm26.364.25a11.85 11.85 0 0 1-3.763 5.84 8.556 8.556 0 0 1-5.545 2.372 4.6 4.6 0 0 1-3.611-1.605 5.733 5.733 0 0 1-1.418-3.941c.056-2.72.967-5.352 2.603-7.525 1.739-2.46 3.843-3.7 6.322-3.7a5.109 5.109 0 0 1 4.101 1.872 6.747 6.747 0 0 1 1.569 4.458 9.606 9.606 0 0 1-.258 2.202v.027Zm-7.695-4.68a9.627 9.627 0 0 0-2.024 2.933 9.01 9.01 0 0 0-.998 4.038c-.027.706.13 1.406.455 2.033a1.355 1.355 0 0 0 1.194.794c1.225 0 2.497-.725 3.816-2.176a7.068 7.068 0 0 0 1.988-4.886 4.505 4.505 0 0 0-.65-2.505 2.022 2.022 0 0 0-1.784-.98 2.943 2.943 0 0 0-1.97.748h-.027Zm22.762 2.825c-.095.161-.844 1.721-2.246 4.681-.063.147-.135.29-.214.428-1.677 3.388-2.969 5.082-3.879 5.082-1.42 0-2.663-1.765-3.727-5.296a31.516 31.516 0 0 1-1.596-8.818 3.264 3.264 0 0 1 .598-2.05 2.021 2.021 0 0 1 1.712-.785 1.608 1.608 0 0 1 1.23.598c.317.303.51.713.544 1.15l-.134 1.952a23.97 23.97 0 0 0-.062 1.784c.057 1.408.275 2.805.651 4.163.436 1.783.74 2.604.891 2.604.152 0 .633-.892 1.498-2.675 1.129-2.3 2.048-4.036 2.755-5.207a11.84 11.84 0 0 1 2.621-3.691 2.97 2.97 0 0 1 1.552.58 1.416 1.416 0 0 1 .57 1.114 4.81 4.81 0 0 1 0 .74 2.249 2.249 0 0 0-.062.455 13.802 13.802 0 0 0 2.478 8.024c.107.107.206.044.286-.196.08-.241.294-.963.615-2.194a39.41 39.41 0 0 1 2.042-5.929 10.164 10.164 0 0 1 1.863-3.13 2.533 2.533 0 0 1 1.65-.605 1.335 1.335 0 0 1 .998.437c.26.25.411.593.419.954a1.6 1.6 0 0 1-.267.98 24.69 24.69 0 0 0-3.388 7.044 43.269 43.269 0 0 1-2.113 5.697c-.402.695-.732 1.043-1.008 1.043a4.506 4.506 0 0 1-2.265-.517 5.241 5.241 0 0 1-1.702-1.899 16.714 16.714 0 0 1-1.481-3.513 22.002 22.002 0 0 1-.829-3.005Zm27.951 4.227c0 1.022-.864 2.246-2.594 3.673a8.916 8.916 0 0 1-5.849 2.14 5.041 5.041 0 0 1-3.932-1.578 6.241 6.241 0 0 1-1.435-4.387 12.154 12.154 0 0 1 2.924-7.774c1.953-2.417 4.048-3.62 6.241-3.62a3.503 3.503 0 0 1 3.665 3.566 6.744 6.744 0 0 1-2.47 4.904 13.316 13.316 0 0 1-6.339 3.218.507.507 0 0 0-.437.535 1.934 1.934 0 0 0 .624 1.355 2.243 2.243 0 0 0 1.685.643c1.98 0 3.947-1.02 5.903-3.059a1.54 1.54 0 0 1 1.096-.597c.615-.018.918.312.918.98Zm-9.932-2.621a9.038 9.038 0 0 0 4.119-1.998c1.186-1.016 1.784-1.943 1.784-2.773a1.23 1.23 0 0 0-.277-.82.89.89 0 0 0-.704-.33c-.892 0-1.783.625-2.853 1.89a9.808 9.808 0 0 0-2.069 4.03Zm13.436-2.123c.321-1.783.473-2.826.473-3.075a3.298 3.298 0 0 1 .481-1.837 1.496 1.496 0 0 1 1.338-.74 2.326 2.326 0 0 1 1.569.472 1.384 1.384 0 0 1 .571 1.061 11.242 11.242 0 0 1-.553 2.443l-.089.33a26.038 26.038 0 0 0-.972 4.663c-.116 1.204-.17 2.176-.17 2.916.028.813.133 1.622.313 2.416.025.144.04.29.044.437 0 .232-.214.535-.642.891-.371.36-.865.568-1.382.58-1.301 0-1.952-.99-1.952-2.96.04-2.06.276-4.11.704-6.126.107-.49.187-.998.267-1.47Zm7.133-12.17a2.336 2.336 0 0 1-.945 1.846 2.797 2.797 0 0 1-1.649.793 2.095 2.095 0 0 1-1.57-.74 2.185 2.185 0 0 1-.695-1.48 2.274 2.274 0 0 1 .687-1.72 2.67 2.67 0 0 1 1.952-.66 2.256 2.256 0 0 1 1.605.58 1.857 1.857 0 0 1 .633 1.382h-.018Z" fill="#fff"/></svg>